<svg t="1721274322126" class="icon" viewBox="0 0 1024 1024" version="1.1" xmlns="http://www.w3.org/2000/svg" p-id="1491" width="200" height="200"><path d="M1003.2 528.8c2.4-5.6 2.4-11.2 1.6-16.8 0-1.6-0.8-2.4-0.8-4-1.6-4.8-3.2-9.6-7.2-13.6 0 0 0-0.8-0.8-1.6L824 313.6c-12.8-12.8-33.6-13.6-46.4-0.8-12.8 12.8-13.6 33.6-0.8 46.4l117.6 123.2H240c-18.4 0-32.8 14.4-32.8 32.8s14.4 32.8 32.8 32.8h653.6L772.8 672.8c-12.8 12.8-12.8 33.6 0 46.4 6.4 6.4 14.4 9.6 23.2 9.6 8.8 0 16.8-3.2 23.2-9.6l176-180c2.4-2.4 4.8-6.4 6.4-9.6 0.8 0 1.6 0 1.6-0.8z" p-id="1492" fill="#8a8a8a"></path><path d="M581.6 792.8c-18.4 0-32.8 14.4-32.8 32.8V912c0 18.4-17.6 32.8-38.4 32.8H127.2c-21.6 0-38.4-14.4-38.4-32.8V122.4c0-18.4 17.6-32.8 38.4-32.8h383.2c21.6 0 38.4 14.4 38.4 32.8v100.8c0 18.4 14.4 32.8 32.8 32.8s32.8-14.4 32.8-32.8V122.4C614.4 68 568 24 510.4 24H127.2C69.6 24 22.4 68 22.4 122.4V912c0 54.4 47.2 98.4 104.8 98.4h383.2c57.6 0 104.8-44 104.8-98.4v-86.4c-0.8-18.4-15.2-32.8-33.6-32.8z" p-id="1493" fill="#8a8a8a"></path></svg>