<svg t="1721803761598" class="icon" viewBox="0 0 1024 1024" version="1.1" xmlns="http://www.w3.org/2000/svg" p-id="2093" width="200" height="200"><path d="M279.272727 409.6a18.618182 18.618182 0 0 1 18.618182 18.618182v167.563636a18.618182 18.618182 0 0 1-18.618182 18.618182H111.709091a18.618182 18.618182 0 0 1-18.618182-18.618182v-167.563636a18.618182 18.618182 0 0 1 18.618182-18.618182h167.563636z m-167.563636-18.618182a37.236364 37.236364 0 0 0-37.236364 37.236364v167.563636a37.236364 37.236364 0 0 0 37.236364 37.236364h167.563636a37.236364 37.236364 0 0 0 37.236364-37.236364v-167.563636a37.236364 37.236364 0 0 0-37.236364-37.236364H111.709091z" fill="#2c2c2c" p-id="2094"></path><path d="M390.981818 390.981818m37.236364 0l167.563636 0q37.236364 0 37.236364 37.236364l0 167.563636q0 37.236364-37.236364 37.236364l-167.563636 0q-37.236364 0-37.236364-37.236364l0-167.563636q0-37.236364 37.236364-37.236364Z" fill="#2c2c2c" p-id="2095"></path><path d="M912.290909 409.6a18.618182 18.618182 0 0 1 18.618182 18.618182v167.563636a18.618182 18.618182 0 0 1-18.618182 18.618182h-167.563636a18.618182 18.618182 0 0 1-18.618182-18.618182v-167.563636a18.618182 18.618182 0 0 1 18.618182-18.618182h167.563636z m-167.563636-18.618182a37.236364 37.236364 0 0 0-37.236364 37.236364v167.563636a37.236364 37.236364 0 0 0 37.236364 37.236364h167.563636a37.236364 37.236364 0 0 0 37.236364-37.236364v-167.563636a37.236364 37.236364 0 0 0-37.236364-37.236364h-167.563636z" fill="#2c2c2c" p-id="2096"></path><path d="M533.876364 577.163636h-16.570182v-106.123636L484.072727 483.216291v-18.674036L531.288436 446.836364h2.587928v130.327272z" fill="#2c2c2c" p-id="2097"></path><path d="M792.445673 551.3216l16.011636 16.197818 56.1152-55.519418-56.133818-55.5008-16.011636 16.1792L832.232727 512l-39.768436 39.3216zM231.554327 551.3216l-16.011636 16.197818L159.446109 512l56.133818-55.5008 16.011637 16.1792L191.767273 512l39.768436 39.3216z" fill="#2c2c2c" p-id="2098"></path></svg>