<?xml version="1.0" encoding="utf-8"?>
<svg version="1.1" xmlns:xlink="http://www.w3.org/1999/xlink" width="12px" height="12px" viewBox="60 1.5  12 12" xmlns="http://www.w3.org/2000/svg">
  <path d="M 66 1.5  C 69.36 1.5  72 4.14  72 7.5  C 72 10.86  69.36 13.5  66 13.5  C 62.64 13.5  60 10.86  60 7.5  C 60 4.14  62.64 1.5  66 1.5  Z " fill-rule="nonzero" fill="#ffffff" stroke="none" />
  <path d="M 66 2  C 69.08 2  71.5 4.42  71.5 7.5  C 71.5 10.58  69.08 13  66 13  C 62.92 13  60.5 10.58  60.5 7.5  C 60.5 4.42  62.92 2  66 2  Z " stroke-width="1" stroke="#797979" fill="none" />
  <path d="M 66 10.5  C 64.32 10.5  63 9.18  63 7.5  C 63 5.82  64.32 4.5  66 4.5  C 67.68 4.5  69 5.82  69 7.5  C 69 9.18  67.68 10.5  66 10.5  " fill-rule="nonzero" fill="#797979" stroke="none" />
</svg>